<svg id="e3c9dbb7-b7f3-4dcc-8e5c-1899591dfb9e" data-name="Слой 1" xmlns="http://www.w3.org/2000/svg" width="70" height="67" viewBox="0 0 70 67"><rect y="9" width="70" height="50" rx="5" fill="#a1d4f4" opacity="0.3"/><path d="M0,49H70a0,0,0,0,1,0,0v5a5,5,0,0,1-5,5H5a5,5,0,0,1-5-5V49A0,0,0,0,1,0,49Z" fill="#e6f9fe"/><rect x="30" y="59" width="10" height="3" fill="#a1d4f4" opacity="0.5"/><rect x="25" y="62" width="20" height="5" fill="#a1d4f4"/><rect x="14.58" width="40" height="40" rx="5" fill="#e00000"/><polygon points="19.08 13 19.08 17 19.08 21 19.08 25 23.08 25 23.08 21 23.08 17 23.08 13 23.08 9 19.08 9 19.08 13" fill="#fff"/><rect x="19.08" y="27" width="4" height="4" fill="#fff"/><polygon points="48.08 9 46.08 9 44.08 9 41.08 9 40.08 9 37.08 9 36.08 9 32.08 9 28.08 9 28.08 11 28.08 13 28.08 15 28.08 19 28.08 23 28.08 27 28.08 31 32.08 31 32.08 27 32.08 23 32.08 19 32.08 15 32.08 13 36.08 13 37.08 13 37.08 17 37.08 21 37.08 25 37.08 27 37.08 29 37.08 31 41.08 31 41.08 29 41.08 27 41.08 25 41.08 21 41.08 17 41.08 13 44.08 13 46.08 13 46.08 15 46.08 19 46.08 23 46.08 27 46.08 31 50.08 31 50.08 27 50.08 23 50.08 19 50.08 15 50.08 13 50.08 11 50.08 9 48.08 9" fill="#fff"/></svg>